<svg width="5202" height="5379" xmlns="http://www.w3.org/2000/svg" xmlns:xlink="http://www.w3.org/1999/xlink" xml:space="preserve" overflow="hidden"><g transform="translate(-850 -751)"><path d="M2910.23 2663.92C2919.49 2675.47 2928.31 2686.64 2936.88 2697.61 3287.13 2601.2 3627.3 2596.67 3973.83 2685.61 3995.44 2659.71 4018.06 2631.96 4041.56 2601.65 4183.76 2419.5 4571.5 1799.47 4626.5 1728.91 4730.34 2532.36 4851.5 3471.2 4953.88 4263.11 5299.15 3890.12 5510.98 3388.96 5510.98 2837.46 5510.98 1685.72 4588.83 751.98 3451.45 751.98 2314 751.98 1391.98 1685.72 1391.98 2837.46 1391.98 3390.43 1604.81 3892.74 1951.66 4265.98 2054.42 3471.33 2163.23 2538.17 2267.82 1729.23 2416.51 1905 2897.63 2648.23 2910.23 2663.92Z" fill="#FED731" fill-rule="evenodd"/><path d="M3451.15 4922.97C4044.07 4922.97 4578.11 4669.05 4953.98 4263.09 4851.57 3471.21 4730.38 2532.46 4626.52 1728.97 4571.5 1799.53 4183.66 2419.54 4041.42 2601.69 4017.91 2632.06 3995.29 2659.74 3973.67 2685.65 3627.11 2596.71 3286.86 2601.24 2936.45 2697.64 2927.88 2686.73 2919.06 2675.5 2909.8 2663.96 2897.25 2648.26 2416.02 1905.06 2267.22 1729.16 2162.61 2538.08 2053.77 3471.21 1950.98 4265.84 2326.72 4670.2 2859.57 4922.97 3451.15 4922.97Z" fill="#010102" fill-rule="evenodd"/><path d="M3728.97 4085.77C3726.45 4073.84 3729.1 4061.52 3732.32 4049.84 3744.54 4005.16 3764.71 3962.58 3790.18 3924.16 3830.08 3864.42 3883.4 3814.06 3945.55 3779.27 4007.76 3744.42 4078.67 3725.53 4149.77 3725.97 4273.69 3726.74 4395.78 3789.23 4469.97 3889.95 4465.56 4003.94 4403.03 4114.05 4307.85 4175.19 4227.99 4226.26 4129.41 4242.85 4035.56 4231.62 3941.96 4220.19 3852.52 4182.73 3771.77 4133.13 3762.38 4127.26 3753.18 4121.39 3745.36 4113.86 3737.61 4106.2 3731.12 4096.49 3728.97 4085.77Z" fill="#FED731" fill-rule="evenodd"/><path d="M4282.63 3741.52C4269.26 3736.59 4256.01 3732.31 4242.07 3728.79 4226.99 3725.02 4211.85 3722.21 4196.46 3720.16 4181.13 3718.24 4165.68 3717.22 4150.1 3716.97 4141.08 3716.97 4132.37 3717.35 4123.48 3717.73 4114.58 3718.37 4105.69 3719.14 4096.92 3720.35 4088.02 3721.44 4079.32 3722.85 4070.55 3724.57 4061.84 3726.3 4053.33 3728.35 4044.62 3730.52 4027.34 3734.99 4010.43 3740.56 3993.9 3747.27 3977.38 3753.98 3961.23 3761.78 3945.65 3770.28 3930.25 3778.98 3915.24 3788.76 3900.73 3799.31 3889.5 3807.62 3878.84 3816.76 3868.31 3826.16 3862.25 3848.28 3858.97 3871.61 3858.97 3895.91 3858.97 4034.57 3964.95 4146.97 4095.97 4146.97 4226.93 4146.97 4332.97 4034.57 4332.97 3895.91 4333.03 3837.67 4314.17 3784.16 4282.63 3741.52Z" fill="#010102" fill-rule="evenodd"/><path d="M3959.97 3916.97C3959.97 3954.96 3987.61 3985.97 4021.44 3985.97 4055.52 3985.97 4082.97 3954.96 4082.97 3916.97 4082.97 3878.85 4055.52 3847.97 4021.44 3847.97 3987.61 3847.9 3959.97 3878.78 3959.97 3916.97Z" fill="#F7F8F9" fill-rule="evenodd"/><path d="M3179.97 4085.77C3182.49 4073.84 3179.91 4061.52 3176.57 4049.84 3164.36 4005.16 3144.34 3962.58 3118.72 3924.16 3079.13 3864.42 3025.68 3814.06 2963.55 3779.27 2901.48 3744.42 2830.66 3725.53 2759.71 3725.97 2635.89 3726.74 2514.01 3789.23 2439.98 3889.95 2444.26 4003.88 2506.84 4114.05 2601.89 4175.19 2681.59 4226.26 2780.11 4242.85 2873.78 4231.62 2967.39 4220.19 3056.65 4182.73 3137.29 4133.13 3146.61 4127.26 3155.86 4121.39 3163.61 4113.86 3171.41 4106.2 3177.77 4096.49 3179.97 4085.77Z" fill="#FED731" fill-rule="evenodd"/><path d="M2627.46 3741.52C2640.67 3736.59 2654.14 3732.31 2667.92 3728.79 2682.9 3725.02 2698.13 3722.14 2713.36 3720.16 2728.78 3718.24 2744.26 3717.22 2759.61 3716.97 2768.49 3716.97 2777.3 3717.35 2786.17 3717.73 2794.98 3718.37 2803.92 3719.14 2812.67 3720.35 2821.48 3721.44 2830.16 3722.85 2838.91 3724.57 2847.59 3726.3 2856.22 3728.35 2864.84 3730.52 2882.02 3734.99 2898.95 3740.56 2915.5 3747.27 2931.92 3753.92 2947.97 3761.78 2963.52 3770.28 2979.06 3778.98 2993.97 3788.76 3008.26 3799.31 3019.52 3807.62 3030.16 3816.76 3040.61 3826.1 3046.65 3848.28 3049.98 3871.68 3049.98 3895.91 3049.98 4034.57 2944.07 4146.97 2813.48 4146.97 2682.84 4146.97 2576.98 4034.57 2576.98 3895.91 2577.11 3837.67 2595.99 3784.16 2627.46 3741.52Z" fill="#010102" fill-rule="evenodd"/><path d="M2946.98 3918.97C2946.98 3957.07 2919.67 3987.97 2885.98 3987.97 2852.29 3987.97 2824.98 3957.07 2824.98 3918.97 2824.98 3880.86 2852.29 3849.97 2885.98 3849.97 2919.67 3849.97 2946.98 3880.86 2946.98 3918.97Z" fill="#F7F8F9" fill-rule="evenodd"/><path d="M951.299 5992.06 890.463 6123.99 850.973 6123.99 1092.69 5597.99 1320.97 6123.99 1282.27 6123.99 1224.64 5992.06ZM1091.11 5686.78 967.868 5956.11 1208.86 5956.11Z" fill="#F7F8F9" fill-rule="evenodd"/><path d="M1490.97 6123.99 1490.97 5604.99 1526.54 5604.99 1526.54 6087.99 1814.97 6087.99 1814.97 6123.96 1490.97 6123.96Z" fill="#F7F8F9" fill-rule="evenodd"/><path d="M2017.96 6123.99 2017.96 5604.99 2053.96 5604.99 2053.96 6123.96 2017.96 6123.96Z" fill="#F7F8F9" fill-rule="evenodd"/><path d="M2501.2 6129.99C2454.43 6129.99 2411.11 6117.99 2371.14 6093.98 2331.23 6069.98 2299.67 6037.67 2276.56 5996.83 2253.42 5956.01 2241.96 5911.55 2241.96 5863.61 2241.96 5815.63 2253.45 5771.35 2276.56 5730.84 2299.67 5690.33 2331.23 5658.09 2371.14 5634 2411.08 5609.99 2454.43 5597.99 2501.2 5597.99 2537.49 5597.99 2572.21 5605.58 2605.64 5620.83 2638.97 5636.02 2668.3 5657.45 2693.52 5685.22L2665.88 5709.99C2644.89 5686.05 2620.06 5667.4 2591.49 5653.99 2562.8 5640.64 2532.72 5634 2501.2 5634 2460.74 5634 2423.42 5644.28 2389.33 5664.83 2355.18 5685.37 2327.97 5713.21 2307.73 5748.42 2287.48 5783.66 2277.35 5822 2277.35 5863.61 2277.35 5905.22 2287.48 5943.61 2307.73 5978.79 2327.97 6013.94 2355.18 6041.84 2389.33 6062.32 2423.42 6082.87 2460.74 6093.19 2501.2 6093.19 2534.83 6093.19 2566.75 6085.71 2596.98 6070.8 2627.21 6055.86 2653.06 6035.04 2674.6 6008.37L2702.96 6030.78C2678.25 6062.23 2648.33 6086.69 2613.12 6103.96 2577.88 6121.35 2540.56 6129.99 2501.2 6129.99Z" fill="#F7F8F9" fill-rule="evenodd"/><path d="M2877.95 6123.99 2877.95 5604.99 3209.95 5604.99 3209.95 5641.75 2913.42 5641.75 2913.42 5846.14 3144.51 5846.14 3144.51 5882.84 2913.42 5882.84 2913.42 6086.43 3209.95 6086.43 3209.95 6123.99Z" fill="#F7F8F9" fill-rule="evenodd"/><path d="M3900.39 5974.14C3968.18 6043.42 4016.97 6093.5 4046.95 6124.42L3997.31 6124.42 3938.96 6066.85C3914.83 6086.09 3892.46 6101.33 3871.98 6112.8 3851.53 6124.27 3829.97 6129.99 3807.35 6129.99 3776.93 6129.99 3749.06 6123.87 3723.79 6111.57 3698.67 6099.34 3678.74 6082.55 3663.99 6061.26 3649.31 6039.94 3641.95 6016.75 3641.95 5991.7 3641.95 5959.79 3650.36 5933.82 3667.13 5913.85 3684.01 5893.88 3708.08 5876.13 3739.62 5860.62L3724.67 5845.54C3711.55 5832.24 3699.85 5815.94 3689.65 5796.76 3679.4 5777.64 3674.24 5755.71 3674.24 5731.27 3674.79 5713.65 3678.47 5696.88 3685.22 5680.92 3692.13 5664.89 3701.78 5650.79 3714.38 5638.52 3727.05 5626.25 3741.4 5616.96 3757.72 5610.53 3774.03 5604.17 3791.16 5600.99 3808.98 5600.99 3826.87 5600.99 3843.96 5604.17 3860.52 5610.53 3877.17 5616.96 3891.61 5626.25 3904.22 5638.52 3916.91 5650.79 3926.5 5664.89 3933.47 5680.92 3940.22 5696.88 3943.66 5713.65 3943.66 5731.27 3943.66 5757.36 3932.65 5782.2 3910.58 5805.57 3900.6 5816.24 3889.32 5826.09 3876.68 5835.14L3849.91 5808.72C3868.27 5797.06 3882.69 5784.37 3892.91 5770.79 3903.1 5757.21 3908.17 5744.05 3908.17 5731.27 3908.17 5719.03 3905.78 5707.04 3900.75 5695.26 3895.77 5683.58 3888.78 5673.45 3879.91 5664.86 3860.4 5646.78 3836.73 5637.69 3808.98 5637.69 3781.63 5637.69 3758.29 5646.78 3738.87 5664.86 3720.41 5681.96 3710.73 5704.07 3709.71 5731.24 3709.71 5748.79 3713.66 5765.04 3721.59 5779.99 3729.37 5794.92 3737.75 5806.85 3746.71 5815.94 3781.42 5852.15 3832.69 5904.92 3900.39 5974.14ZM3858.62 6078.84C3875.93 6069.3 3894.3 6056.7 3913.75 6041.28L3766.52 5887.85C3735.46 5902.26 3712.84 5916.91 3698.73 5931.81 3684.47 5946.73 3677.5 5966.68 3677.5 5991.7 3677.5 6010.42 3683.26 6027.46 3694.72 6042.84 3706.33 6058.32 3722.01 6070.56 3742.01 6079.64 3762 6088.72 3783.8 6093.22 3807.38 6093.22 3824.27 6093.22 3841.28 6088.39 3858.62 6078.84Z" fill="#F7F8F9" fill-rule="evenodd"/><path d="M4826.32 5900.86C4843.33 5923.44 4851.94 5949.18 4851.94 5977.9 4851.94 5996.52 4847.77 6014.67 4839.64 6032.55 4831.61 6050.4 4819.86 6066.26 4804.54 6080.1 4788.8 6093.98 4770.28 6104.67 4749.02 6112.41 4727.6 6120.14 4705.15 6123.99 4681.47 6123.99L4492.94 6123.99 4493.6 5604.99 4640.36 5604.99C4688.24 5604.99 4726.45 5618.59 4754.88 5645.73 4767.96 5657.92 4778.11 5672.01 4785.21 5688.02 4792.34 5704.01 4795.9 5720.48 4795.9 5737.6 4795.9 5758.84 4790.95 5778.27 4781.31 5795.82 4771.52 5813.42 4759.53 5826.99 4745.39 5836.56L4738.29 5841.32C4748.32 5844.5 4756.96 5847.71 4764.27 5850.92 4788.53 5861.52 4809.13 5878.12 4826.32 5900.86ZM4529.1 5830.93 4638.88 5830.93C4652.98 5830.93 4664.86 5830.14 4674.34 5828.58 4683.86 5826.96 4693.28 5824.27 4702.74 5820.54 4716.42 5814.73 4729.41 5804.62 4741.89 5790.22 4754.15 5775.86 4760.35 5758.26 4760.35 5737.57 4760.35 5721 4755.75 5705.38 4746.51 5690.78 4737.36 5676.17 4723.67 5664.31 4705.49 5655.2 4687.42 5646.22 4665.7 5641.72 4640.36 5641.72L4529.1 5641.72ZM4752.43 6072.03C4773.03 6061.43 4788.77 6047.77 4799.8 6030.99 4810.85 6014.21 4816.41 5996.52 4816.41 5977.9 4816.41 5957.09 4809.98 5938.33 4797.05 5921.58 4784.15 5904.8 4768.71 5892.48 4750.95 5884.45 4725.61 5873.29 4693.89 5867.67 4655.46 5867.67L4529.1 5867.67 4529.1 6088.02 4681.44 6088.02C4708.24 6087.99 4731.95 6082.79 4752.43 6072.03Z" fill="#F7F8F9" fill-rule="evenodd"/><path d="M5259.39 6129.99C5212.62 6129.99 5169.27 6118.11 5129.27 6094.45 5089.36 6070.64 5057.72 6038.38 5034.62 5997.71 5011.53 5956.91 4999.93 5912.5 4999.93 5864.47 4999.93 5816.54 5011.56 5772.1 5034.62 5731.3 5057.72 5690.56 5089.33 5658.37 5129.27 5634.58 5169.24 5610.9 5212.62 5598.99 5259.39 5598.99 5306.24 5598.99 5349.63 5610.9 5389.57 5634.58 5429.57 5658.34 5461.06 5690.56 5484.21 5731.3 5507.28 5772.1 5518.93 5816.54 5518.93 5864.47 5518.93 5912.46 5507.25 5956.91 5484.21 5997.71 5461.06 6038.38 5429.57 6070.64 5389.57 6094.45 5349.66 6118.11 5306.24 6129.99 5259.39 6129.99ZM5259.39 5635.81C5218.99 5635.81 5181.62 5646.12 5147.41 5666.66 5113.27 5687.2 5086.07 5714.9 5065.81 5749.73 5045.61 5784.74 5035.44 5823 5035.44 5864.5 5035.44 5906.07 5045.61 5944.42 5065.81 5979.28 5086.07 6014.17 5113.27 6041.87 5147.41 6062.38 5181.62 6082.88 5218.99 6093.2 5259.39 6093.2 5299.9 6093.2 5337.28 6082.92 5371.39 6062.38 5405.66 6041.87 5432.65 6014.14 5452.73 5979.28 5472.68 5944.39 5482.67 5906.07 5482.67 5864.5 5482.67 5823 5472.68 5784.77 5452.73 5749.73 5432.65 5714.9 5405.63 5687.2 5371.39 5666.66 5337.31 5646.12 5299.9 5635.81 5259.39 5635.81Z" fill="#F7F8F9" fill-rule="evenodd"/><path d="M6026.23 5900.86C6043.32 5923.44 6051.93 5949.18 6051.93 5977.9 6051.93 5996.52 6047.85 6014.67 6039.7 6032.55 6031.54 6050.43 6019.79 6066.26 6004.45 6080.1 5988.72 6093.98 5970.23 6104.67 5948.94 6112.41 5927.68 6120.14 5905.15 6123.99 5881.44 6123.99L5692.93 6123.99 5693.74 5604.99 5840.49 5604.99C5888.33 5604.99 5926.38 5618.59 5954.8 5645.73 5968.03 5657.92 5978.15 5672.01 5985.12 5688.02 5992.31 5704.01 5995.87 5720.48 5995.87 5737.6 5995.87 5758.84 5991.01 5778.27 5981.23 5795.82 5971.47 5813.42 5959.54 5826.99 5945.38 5836.56L5938.25 5841.32C5948.25 5844.5 5957.01 5847.71 5964.34 5850.92 5988.48 5861.59 6009.1 5878.12 6026.23 5900.86ZM5729.14 5830.93 5838.89 5830.93C5853.02 5830.93 5864.86 5830.14 5874.44 5828.58 5883.86 5826.96 5893.31 5824.27 5902.82 5820.54 5916.35 5814.73 5929.49 5804.62 5941.81 5790.22 5954.2 5775.86 5960.27 5758.26 5960.27 5737.57 5960.27 5721 5955.71 5705.38 5946.53 5690.78 5937.28 5676.17 5923.6 5664.31 5905.57 5655.2 5887.39 5646.22 5865.62 5641.72 5840.49 5641.72L5729.14 5641.72ZM5952.51 6072.03C5972.98 6061.43 5988.72 6047.77 5999.77 6030.99 6010.79 6014.21 6016.35 5996.52 6016.35 5977.9 6016.35 5957.09 6009.89 5938.33 5997.02 5921.58 5984.1 5904.8 5968.69 5892.48 5950.9 5884.45 5925.69 5873.29 5893.85 5867.67 5855.44 5867.67L5729.14 5867.67 5729.14 6088.02 5881.41 6088.02C5908.35 6087.99 5931.91 6082.79 5952.51 6072.03Z" fill="#F7F8F9" fill-rule="evenodd"/><path d="M4084.94 5955.49C4084.94 5982.27 4063.45 6003.99 4036.94 6003.99 4010.43 6003.99 3988.94 5982.27 3988.94 5955.49 3988.94 5928.7 4010.43 5906.99 4036.94 5906.99 4063.45 5906.99 4084.94 5928.7 4084.94 5955.49Z" fill="#FED731" fill-rule="evenodd"/></g></svg>