<?xml version="1.0" encoding="UTF-8"?>
<svg id="Capa_2" data-name="Capa 2" xmlns="http://www.w3.org/2000/svg" xmlns:xlink="http://www.w3.org/1999/xlink" viewBox="0 0 1260.8 256.07">
  <defs>
    <style>
      .cls-1 {
        fill: url(#Degradado_sin_nombre_7-15);
      }

      .cls-2 {
        fill: url(#Degradado_sin_nombre_7-13);
      }

      .cls-3 {
        fill: url(#Degradado_sin_nombre_7-14);
      }

      .cls-4 {
        fill: url(#Degradado_sin_nombre_7-12);
      }

      .cls-5 {
        fill: url(#Degradado_sin_nombre_7-10);
      }

      .cls-6 {
        fill: url(#Degradado_sin_nombre_7-11);
      }

      .cls-7 {
        fill: url(#Degradado_sin_nombre_7-18);
      }

      .cls-8 {
        fill: url(#Degradado_sin_nombre_7-17);
      }

      .cls-9 {
        fill: url(#Degradado_sin_nombre_7-16);
      }

      .cls-10 {
        fill: url(#Degradado_sin_nombre_7-19);
      }

      .cls-11 {
        fill: url(#Degradado_sin_nombre_7-23);
      }

      .cls-12 {
        fill: url(#Degradado_sin_nombre_7-22);
      }

      .cls-13 {
        fill: url(#Degradado_sin_nombre_7-21);
      }

      .cls-14 {
        fill: url(#Degradado_sin_nombre_7-20);
      }

      .cls-15 {
        fill: url(#Degradado_sin_nombre_7-2);
      }

      .cls-16 {
        fill: url(#Degradado_sin_nombre_7-6);
      }

      .cls-17 {
        fill: url(#Degradado_sin_nombre_7-4);
      }

      .cls-18 {
        fill: url(#Degradado_sin_nombre_7-7);
      }

      .cls-19 {
        fill: url(#Degradado_sin_nombre_7-5);
      }

      .cls-20 {
        fill: url(#Degradado_sin_nombre_7-9);
      }

      .cls-21 {
        fill: url(#Degradado_sin_nombre_7-8);
      }

      .cls-22 {
        fill: url(#Degradado_sin_nombre_7-3);
      }

      .cls-23 {
        fill: url(#Degradado_sin_nombre_7);
      }
    </style>
    <linearGradient id="Degradado_sin_nombre_7" data-name="Degradado sin nombre 7" x1="36.82" y1="95.39" x2="1206.75" y2="34.88" gradientUnits="userSpaceOnUse">
      <stop offset="0" stop-color="#c6093f"/>
      <stop offset=".23" stop-color="#ac0f5f"/>
      <stop offset=".47" stop-color="#7f1997"/>
      <stop offset=".67" stop-color="#5f21c1"/>
      <stop offset=".77" stop-color="#5325d1"/>
      <stop offset=".81" stop-color="#4c26d9"/>
      <stop offset=".93" stop-color="#362cf4"/>
      <stop offset="1" stop-color="#2f2eff"/>
    </linearGradient>
    <linearGradient id="Degradado_sin_nombre_7-2" data-name="Degradado sin nombre 7" x1="36.51" y1="89.32" x2="1206.44" y2="28.81" xlink:href="#Degradado_sin_nombre_7"/>
    <linearGradient id="Degradado_sin_nombre_7-3" data-name="Degradado sin nombre 7" x1="36.68" y1="92.59" x2="1206.61" y2="32.08" xlink:href="#Degradado_sin_nombre_7"/>
    <linearGradient id="Degradado_sin_nombre_7-4" data-name="Degradado sin nombre 7" x1="37.63" y1="110.93" x2="1207.55" y2="50.42" xlink:href="#Degradado_sin_nombre_7"/>
    <linearGradient id="Degradado_sin_nombre_7-5" data-name="Degradado sin nombre 7" x1="37.84" y1="115.01" x2="1207.77" y2="54.5" xlink:href="#Degradado_sin_nombre_7"/>
    <linearGradient id="Degradado_sin_nombre_7-6" data-name="Degradado sin nombre 7" x1="36.85" y1="95.86" x2="1206.77" y2="35.35" xlink:href="#Degradado_sin_nombre_7"/>
    <linearGradient id="Degradado_sin_nombre_7-7" data-name="Degradado sin nombre 7" x1="37.14" y1="101.6" x2="1207.07" y2="41.08" xlink:href="#Degradado_sin_nombre_7"/>
    <linearGradient id="Degradado_sin_nombre_7-8" data-name="Degradado sin nombre 7" x1="38.14" y1="120.89" x2="1208.07" y2="60.38" xlink:href="#Degradado_sin_nombre_7"/>
    <linearGradient id="Degradado_sin_nombre_7-9" data-name="Degradado sin nombre 7" x1="39.16" y1="140.65" x2="1209.09" y2="80.14" xlink:href="#Degradado_sin_nombre_7"/>
    <linearGradient id="Degradado_sin_nombre_7-10" data-name="Degradado sin nombre 7" x1="38.57" y1="129.23" x2="1208.5" y2="68.72" xlink:href="#Degradado_sin_nombre_7"/>
    <linearGradient id="Degradado_sin_nombre_7-11" data-name="Degradado sin nombre 7" x1="38.79" y1="133.49" x2="1208.72" y2="72.98" xlink:href="#Degradado_sin_nombre_7"/>
    <linearGradient id="Degradado_sin_nombre_7-12" data-name="Degradado sin nombre 7" x1="44.58" y1="245.42" x2="1214.51" y2="184.91" xlink:href="#Degradado_sin_nombre_7"/>
    <linearGradient id="Degradado_sin_nombre_7-13" data-name="Degradado sin nombre 7" x1="44.69" y1="247.53" x2="1214.62" y2="187.02" xlink:href="#Degradado_sin_nombre_7"/>
    <linearGradient id="Degradado_sin_nombre_7-14" data-name="Degradado sin nombre 7" x1="45.46" y1="262.28" x2="1215.38" y2="201.77" xlink:href="#Degradado_sin_nombre_7"/>
    <linearGradient id="Degradado_sin_nombre_7-15" data-name="Degradado sin nombre 7" x1="44.94" y1="252.24" x2="1214.86" y2="191.72" xlink:href="#Degradado_sin_nombre_7"/>
    <linearGradient id="Degradado_sin_nombre_7-16" data-name="Degradado sin nombre 7" x1="45.09" y1="255.26" x2="1215.02" y2="194.75" xlink:href="#Degradado_sin_nombre_7"/>
    <linearGradient id="Degradado_sin_nombre_7-17" data-name="Degradado sin nombre 7" x1="45.27" y1="258.61" x2="1215.19" y2="198.1" xlink:href="#Degradado_sin_nombre_7"/>
    <linearGradient id="Degradado_sin_nombre_7-18" data-name="Degradado sin nombre 7" x1="45.67" y1="266.51" x2="1215.6" y2="206" xlink:href="#Degradado_sin_nombre_7"/>
    <linearGradient id="Degradado_sin_nombre_7-19" data-name="Degradado sin nombre 7" x1="45.92" y1="271.36" x2="1215.85" y2="210.85" xlink:href="#Degradado_sin_nombre_7"/>
    <linearGradient id="Degradado_sin_nombre_7-20" data-name="Degradado sin nombre 7" x1="46.01" y1="272.97" x2="1215.94" y2="212.46" xlink:href="#Degradado_sin_nombre_7"/>
    <linearGradient id="Degradado_sin_nombre_7-21" data-name="Degradado sin nombre 7" x1="46.38" y1="280.14" x2="1216.31" y2="219.63" xlink:href="#Degradado_sin_nombre_7"/>
    <linearGradient id="Degradado_sin_nombre_7-22" data-name="Degradado sin nombre 7" x1="46.21" y1="276.85" x2="1216.14" y2="216.33" xlink:href="#Degradado_sin_nombre_7"/>
    <linearGradient id="Degradado_sin_nombre_7-23" data-name="Degradado sin nombre 7" x1="46.59" y1="284.29" x2="1216.52" y2="223.78" xlink:href="#Degradado_sin_nombre_7"/>
  </defs>
  <g id="Capa_1-2" data-name="Capa 1">
    <g>
      <g>
        <path class="cls-23" d="M146.61,162.18c-2.64-.43-5.06.62-6.56,2.44t-.01.01c-.18.21-4.6,5.29-12.67,5.29-5.07,0-14.79-2.11-24.2-4.15-4.74-1.03-9.36-2.04-13.65-2.85l11.81-4.79c34.16-9.3,59.36-40.58,59.36-77.65C160.68,36.1,124.58,0,80.2,0c-20.3,0-39.68,7.58-54.58,21.34C10.86,34.97,1.78,53.43.03,73.36c-.31,3.58,2.03,7,5.56,7.7,4.18.83,8.02-2.15,8.37-6.27,1.4-16.53,8.91-31.86,21.16-43.17,12.31-11.37,28.32-17.63,45.09-17.63,36.66,0,66.48,29.82,66.48,66.48s-29.82,66.48-66.48,66.48c-26.95,0-51.14-16.3-61.39-40.94l43.45-51.99,35.26,54.53c1.15,1.78,3.03,3.02,5.14,3.26.27.03.54.05.81.05,2.01,0,3.93-.86,5.26-2.39l26.17-29.87c4.71-5.38,4.17-13.55-1.21-18.26h0c-.44-.39-1.11-.34-1.5.1l-27.88,31.83-35.45-54.83c-1.21-1.87-3.23-3.05-5.45-3.19s-4.37.79-5.8,2.5L5.43,100.2h0c-1.52,1.83-2.08,4.39-1.24,6.79,9.23,26.47,31.43,45.8,57.98,51.91l-17.48,7.09c-3.44,1.4-5.19,5.25-3.98,8.76,1.21,3.52,4.96,5.48,8.53,4.46.15-.04,14.46-4.08,25.64-4.08,5.48,0,15.56,2.19,25.32,4.31,10.59,2.3,20.59,4.47,27.16,4.47,13.93,0,22.03-8.71,23.34-10.24.07-.07.13-.14.18-.22,1.2-1.48,1.8-3.45,1.45-5.57-.48-2.9-2.83-5.25-5.73-5.72Z"/>
        <path class="cls-15" d="M189.68,157.46c-3.87,0-7-3.13-7-7V12.34c0-3.87,3.13-7,7-7s7,3.13,7,7v138.12c0,3.87-3.13,7-7,7Z"/>
        <path class="cls-22" d="M280.44,143.46h-47.76V12.34c0-3.87-3.13-7-7-7s-7,3.13-7,7v138.12c0,3.87,3.13,7,7,7h54.76c3.87,0,7-3.13,7-7s-3.13-7-7-7Z"/>
        <g>
          <path class="cls-17" d="M615.52,12.2c0-.13,0-.26-.02-.38,0-.11-.02-.22-.03-.33-.01-.11-.03-.22-.05-.33-.02-.12-.04-.24-.07-.36-.02-.1-.05-.19-.07-.29-.03-.12-.07-.25-.11-.37-.03-.1-.07-.19-.1-.28-.04-.12-.09-.23-.14-.34-.04-.1-.1-.2-.15-.3-.05-.1-.1-.2-.15-.3-.06-.11-.13-.21-.19-.32-.05-.09-.11-.17-.16-.25-.07-.1-.15-.21-.23-.31-.06-.08-.12-.16-.19-.23-.08-.09-.16-.18-.25-.27-.08-.08-.15-.16-.23-.24-.08-.08-.16-.15-.24-.22-.1-.08-.19-.17-.29-.25-.04-.03-.07-.06-.11-.09-.04-.03-.09-.06-.13-.09-.11-.08-.22-.15-.33-.23-.08-.05-.17-.11-.26-.16-.11-.06-.22-.12-.34-.18-.09-.05-.19-.09-.29-.14-.11-.05-.22-.09-.33-.14-.11-.04-.21-.08-.32-.12-.11-.04-.21-.07-.32-.1-.12-.03-.23-.06-.35-.09-.1-.02-.21-.04-.31-.06-.13-.02-.25-.04-.38-.06-.1-.01-.2-.02-.3-.03-.13-.01-.27-.02-.4-.02-.05,0-.1,0-.16,0-.05,0-.09,0-.14,0-.13,0-.26,0-.38.02-.11,0-.22.02-.33.03-.11.01-.22.03-.33.05-.12.02-.24.04-.36.07-.1.02-.19.05-.29.07-.12.03-.25.07-.37.11-.1.03-.19.07-.28.1-.12.04-.23.09-.34.14-.1.04-.2.09-.3.14-.1.05-.2.1-.3.15-.11.06-.21.13-.31.19-.09.05-.17.11-.25.16-.1.07-.2.15-.3.23-.08.06-.16.12-.24.19-.09.08-.18.16-.27.24-.08.08-.16.15-.24.23-.08.08-.15.16-.22.24-.08.1-.17.19-.25.3-.03.04-.06.07-.09.11l-103.54,137.81c-2.32,3.09-1.7,7.48,1.39,9.8,3.09,2.32,7.48,1.7,9.8-1.39l90.95-121.05v117.15c0,3.87,3.13,7,7,7s7-3.13,7-7V12.34s0-.09,0-.14Z"/>
          <path class="cls-19" d="M749.29,12.34c0-3.87-3.13-7-7-7s-7,3.13-7,7v118.46L633,5.34v22.17l103.86,127.37s0,0,.01.01c.1.13.22.25.33.37.35.37.73.69,1.13.97.02.01.03.02.05.03.15.1.31.2.47.29.04.02.07.05.11.07.14.08.29.14.44.21.06.03.12.06.18.09.14.06.27.1.41.15.08.03.15.06.23.08.15.05.3.08.46.12.07.02.14.04.21.05.46.09.93.14,1.39.14,0,0,0,0,0,0,.01,0,.02,0,.03,0,.22,0,.44-.01.66-.03.05,0,.11-.02.16-.02.17-.02.35-.05.52-.08.07-.01.14-.03.21-.05.15-.04.3-.07.45-.12.08-.02.15-.05.23-.08.14-.05.28-.1.42-.15.08-.03.15-.07.22-.1.13-.06.27-.12.4-.19.07-.04.14-.08.21-.12.13-.07.26-.15.38-.23.06-.04.12-.09.18-.13.12-.08.23-.16.35-.25.51-.42.95-.9,1.31-1.42.03-.04.05-.07.08-.11.08-.12.15-.24.22-.36.05-.08.09-.15.14-.23.05-.09.09-.19.14-.28.06-.11.11-.23.16-.35.03-.06.05-.13.07-.19.06-.15.12-.3.16-.46,0-.03.02-.07.03-.1.13-.46.22-.93.25-1.42.01-.17.02-.34.03-.5,0,0,0-.01,0-.02V12.34Z"/>
        </g>
        <g>
          <path class="cls-16" d="M316.44,157.46c-3.87,0-7-3.13-7-7V12.34c0-3.87,3.13-7,7-7s7,3.13,7,7v138.12c0,3.87-3.13,7-7,7Z"/>
          <path class="cls-18" d="M475.97,12.11c0-.14,0-.27-.02-.41-.01-.11-.03-.22-.04-.34-.02-.11-.03-.22-.05-.33-.02-.12-.05-.24-.08-.36-.02-.1-.05-.2-.08-.3-.03-.12-.08-.23-.12-.35-.04-.1-.07-.2-.11-.3-.04-.11-.09-.21-.14-.32-.05-.1-.1-.21-.15-.31-.05-.09-.1-.19-.16-.28-.06-.11-.12-.21-.19-.31-.06-.09-.12-.17-.18-.26-.07-.1-.14-.2-.22-.29-.07-.09-.15-.17-.22-.26-.07-.08-.15-.17-.23-.25-.1-.1-.2-.19-.3-.28-.06-.05-.11-.11-.17-.16-.01-.01-.03-.02-.04-.03-.12-.1-.24-.19-.37-.28-.06-.05-.12-.1-.19-.14-.13-.09-.26-.16-.39-.24-.07-.04-.13-.08-.2-.12-.12-.07-.25-.13-.38-.19-.08-.04-.16-.08-.24-.11-.1-.04-.21-.08-.32-.12-.11-.04-.21-.08-.32-.12-.08-.03-.17-.04-.25-.07-.14-.04-.28-.08-.42-.11-.07-.02-.15-.02-.23-.04-.15-.03-.3-.05-.46-.07-.08,0-.15,0-.23-.01-.16-.01-.31-.02-.47-.02-.02,0-.03,0-.05,0-.08,0-.15,0-.23.01-.14,0-.27,0-.41.02-.11.01-.22.03-.34.04-.11.02-.23.03-.34.05-.12.02-.24.05-.36.08-.1.02-.2.05-.3.08-.12.03-.23.07-.35.12-.1.04-.2.07-.3.11-.11.04-.21.09-.31.14-.1.05-.21.1-.31.15-.09.05-.19.1-.28.16-.11.06-.21.12-.31.19-.09.06-.17.12-.25.18-.1.07-.2.14-.3.22-.09.07-.17.15-.26.22-.08.08-.17.15-.25.23-.1.1-.19.2-.28.3-.05.06-.11.11-.16.17l-61.44,72.3L340.92,7.67v21.66l55.93,66.12c.06.07.13.14.2.21.05.06.1.11.16.17.12.13.25.25.38.36.03.02.05.05.07.07.02.01.03.02.05.04.14.12.29.23.44.34.04.03.08.06.12.09.15.1.3.19.45.28.05.03.1.06.15.09.15.08.3.15.45.22.06.03.12.06.18.08.14.06.29.11.44.16.07.02.14.05.21.07.14.04.29.08.44.11.07.02.14.04.22.05.15.03.31.05.46.07.07,0,.13.02.2.03.17.02.33.03.5.03.05,0,.11,0,.16,0,.18,0,.36,0,.54-.02.04,0,.08,0,.11,0,.19-.02.38-.04.57-.07.03,0,.06,0,.09-.01.19-.03.38-.08.57-.13.03,0,.06-.01.08-.02.18-.05.36-.11.54-.18.03-.01.07-.02.1-.04.17-.07.33-.14.49-.22.05-.02.1-.04.14-.07.15-.08.29-.16.43-.24.06-.04.12-.07.18-.11.13-.08.25-.17.38-.27.07-.05.13-.1.2-.15.05-.04.1-.07.14-.11.07-.06.14-.13.21-.2.06-.05.11-.1.17-.16.13-.12.24-.25.36-.38.02-.03.05-.05.07-.08l54.45-64.07v119.08c0,3.87,3.13,7,7,7s7-3.13,7-7V12.34c0-.08,0-.15-.01-.23Z"/>
        </g>
        <path class="cls-21" d="M778.29,157.46c-3.87,0-7-3.13-7-7s3.13-7,7-7c21.21,0,38.46-17.25,38.46-38.46V12.34c0-3.87,3.13-7,7-7s7,3.13,7,7v92.67c0,28.92-23.53,52.46-52.46,52.46Z"/>
        <path class="cls-20" d="M1184.74,157.46c-41.94,0-76.06-34.12-76.06-76.06s34.12-76.06,76.06-76.06,76.06,34.12,76.06,76.06-34.12,76.06-76.06,76.06ZM1184.74,19.37c-34.21,0-62.03,27.83-62.03,62.03s27.83,62.03,62.03,62.03,62.03-27.83,62.03-62.03-27.83-62.03-62.03-62.03Z"/>
        <g>
          <path class="cls-5" d="M970.28,12.2c0-.13,0-.26-.02-.38,0-.11-.02-.22-.03-.33-.01-.11-.03-.22-.05-.33-.02-.12-.04-.24-.07-.36-.02-.1-.05-.19-.07-.29-.03-.12-.07-.25-.11-.37-.03-.1-.07-.19-.1-.28-.04-.12-.09-.23-.14-.34-.04-.1-.1-.2-.15-.3-.05-.1-.1-.2-.15-.3-.06-.11-.13-.21-.19-.32-.05-.09-.11-.17-.16-.25-.07-.1-.15-.21-.23-.31-.06-.08-.12-.16-.19-.23-.08-.09-.16-.18-.25-.27-.08-.08-.15-.16-.23-.24-.08-.08-.16-.15-.24-.22-.1-.08-.19-.17-.29-.25-.04-.03-.07-.06-.11-.09-.04-.03-.09-.06-.13-.09-.11-.08-.22-.15-.33-.23-.08-.05-.17-.11-.26-.16-.11-.06-.22-.12-.34-.18-.09-.05-.19-.09-.29-.14-.11-.05-.22-.09-.33-.14-.11-.04-.21-.08-.32-.12-.11-.04-.21-.07-.32-.1-.12-.03-.23-.06-.35-.09-.1-.02-.21-.04-.31-.06-.13-.02-.25-.04-.38-.06-.1-.01-.2-.02-.3-.03-.13-.01-.27-.02-.4-.02-.05,0-.1,0-.16,0-.05,0-.09,0-.14,0-.13,0-.26,0-.39.02-.11,0-.22.02-.33.03-.11.01-.22.03-.33.05-.12.02-.24.04-.36.07-.1.02-.19.05-.29.07-.12.03-.25.07-.37.11-.1.03-.19.07-.28.1-.12.04-.23.09-.34.14-.1.04-.2.09-.3.14-.1.05-.2.1-.3.15-.11.06-.21.13-.31.19-.09.05-.17.11-.25.16-.1.07-.2.15-.3.23-.08.06-.16.12-.24.19-.09.08-.18.16-.27.25-.08.08-.16.15-.24.23-.08.08-.15.16-.22.24-.08.1-.17.19-.25.29-.03.04-.06.07-.09.11l-103.54,137.81c-2.32,3.09-1.7,7.48,1.39,9.8,3.09,2.32,7.48,1.7,9.8-1.39l90.95-121.05v117.15c0,3.87,3.13,7,7,7s7-3.13,7-7V12.34s0-.09,0-.14Z"/>
          <path class="cls-6" d="M1082.47,146.33h0s0-.01,0-.02l-33.1-40.37c21.48-5.87,37.32-25.56,37.32-48.88,0-27.93-22.72-50.66-50.66-50.66h-48.26v14h48.26c20.21,0,36.66,16.44,36.66,36.66s-16.44,36.66-36.66,36.66c-2.71,0-5.17,1.56-6.33,4.01-1.16,2.45-.8,5.34.91,7.43l41.03,50.04h0c1.28,1.56,3.23,2.56,5.41,2.56,3.87,0,7-3.13,7-7,0-1.68-.6-3.23-1.59-4.44h0Z"/>
        </g>
      </g>
      <g>
        <g>
          <path class="cls-4" d="M261.1,233.75c0-11.01-8.96-19.96-19.96-19.96s-19.96,8.95-19.96,19.96,8.96,19.96,19.96,19.96c3.12,0,6.07-.72,8.7-2l2.06,3.14c.52.79,1.38,1.21,2.25,1.21.51,0,1.02-.14,1.47-.44,1.24-.81,1.59-2.48.77-3.72l-2.08-3.17c4.16-3.66,6.78-9.02,6.78-14.98ZM249.46,241.32c-.82-1.24-2.48-1.59-3.72-.77-1.24.81-1.59,2.48-.77,3.72l1.9,2.89c-1.76.75-3.69,1.17-5.72,1.17-8.04,0-14.58-6.54-14.58-14.58s6.54-14.58,14.58-14.58,14.58,6.54,14.58,14.58c0,4.08-1.69,7.77-4.4,10.42l-1.87-2.84Z"/>
          <path class="cls-2" d="M332.3,213.79c-1.49,0-2.69,1.2-2.69,2.69v20.29c0,6.38-5.19,11.57-11.57,11.57s-11.57-5.19-11.57-11.57v-20.29c0-1.49-1.2-2.69-2.69-2.69s-2.69,1.2-2.69,2.69v20.29c0,9.34,7.6,16.95,16.95,16.95s16.95-7.6,16.95-16.95v-20.29c0-1.49-1.2-2.69-2.69-2.69Z"/>
          <path class="cls-3" d="M618.18,213.79c-1.49,0-2.69,1.2-2.69,2.69v20.29c0,6.38-5.19,11.57-11.57,11.57s-11.57-5.19-11.57-11.57v-20.29c0-1.49-1.2-2.69-2.69-2.69s-2.69,1.2-2.69,2.69v20.29c0,9.34,7.6,16.95,16.95,16.95s16.95-7.6,16.95-16.95v-20.29c0-1.49-1.2-2.69-2.69-2.69Z"/>
          <path class="cls-1" d="M403.12,213.92c-1.12-.36-2.33.05-3.01,1l-24.62,34.54c-.86,1.21-.58,2.89.63,3.75.47.34,1.02.5,1.56.5.84,0,1.67-.39,2.19-1.13l19.73-27.69v26.13c0,1.49,1.2,2.69,2.69,2.69s2.69-1.2,2.69-2.69v-34.54c0-1.17-.76-2.21-1.87-2.56Z"/>
          <path class="cls-9" d="M474.3,213.79c-1.49,0-2.69,1.2-2.69,2.69v26.65l-21.8-28.29c-.7-.91-1.9-1.27-3-.9-1.09.37-1.82,1.39-1.82,2.55v34.54c0,1.49,1.2,2.69,2.69,2.69s2.69-1.2,2.69-2.69v-26.65l21.8,28.29c.52.67,1.31,1.05,2.13,1.05.29,0,.58-.05.87-.14,1.09-.37,1.82-1.39,1.82-2.55v-34.54c0-1.49-1.2-2.69-2.69-2.69Z"/>
          <path class="cls-8" d="M544.29,213.79h-24.61c-1.49,0-2.69,1.2-2.69,2.69s1.2,2.69,2.69,2.69h9.61v31.85c0,1.49,1.2,2.69,2.69,2.69s2.69-1.2,2.69-2.69v-31.85h9.61c1.49,0,2.69-1.2,2.69-2.69s-1.2-2.69-2.69-2.69Z"/>
          <path class="cls-7" d="M695.45,213.95c-1.06-.39-2.26-.06-2.98.81l-13.42,16.12-13.42-16.12c-.72-.87-1.92-1.19-2.98-.81-1.07.39-1.77,1.4-1.77,2.53v34.54c0,1.49,1.2,2.69,2.69,2.69s2.69-1.2,2.69-2.69v-27.11l10.73,12.89c.51.61,1.27.97,2.07.97s1.56-.36,2.07-.97l10.73-12.89v27.11c0,1.49,1.2,2.69,2.69,2.69s2.69-1.2,2.69-2.69v-34.54c0-1.13-.71-2.14-1.77-2.53Z"/>
        </g>
        <path class="cls-10" d="M746.29,231.07c-2.25,0-4.07,1.82-4.07,4.07s1.82,4.07,4.07,4.07,4.07-1.82,4.07-4.07-1.82-4.07-4.07-4.07Z"/>
        <g>
          <path class="cls-14" d="M822.65,213.79h-24.61c-1.49,0-2.69,1.2-2.69,2.69s1.2,2.69,2.69,2.69h9.61v31.85c0,1.49,1.2,2.69,2.69,2.69s2.69-1.2,2.69-2.69v-31.85h9.61c1.49,0,2.69-1.2,2.69-2.69s-1.2-2.69-2.69-2.69Z"/>
          <path class="cls-13" d="M963.19,242.77c-2.66,2.91-6.45,4.58-10.4,4.58-7.77,0-14.09-6.32-14.09-14.09s6.32-14.09,14.09-14.09c3.92,0,7.69,1.65,10.35,4.53,1.01,1.09,2.71,1.16,3.8.15,1.09-1.01,1.16-2.71.15-3.8-3.67-3.97-8.89-6.25-14.3-6.25-10.73,0-19.47,8.73-19.47,19.47s8.73,19.47,19.47,19.47c5.45,0,10.69-2.31,14.37-6.33,1-1.1.93-2.8-.17-3.8-1.1-1-2.8-.93-3.8.17Z"/>
          <path class="cls-12" d="M890.64,219.17c1.49,0,2.69-1.2,2.69-2.69s-1.2-2.69-2.69-2.69h-22.61c-1.49,0-2.69,1.2-2.69,2.69v34.54c0,1.49,1.2,2.69,2.69,2.69h22.61c1.49,0,2.69-1.2,2.69-2.69s-1.2-2.69-2.69-2.69h-19.92v-12.83h14.14c1.49,0,2.69-1.2,2.69-2.69s-1.2-2.69-2.69-2.69h-14.14v-10.96h19.92Z"/>
          <path class="cls-11" d="M1036.93,213.79c-1.49,0-2.69,1.2-2.69,2.69v14.58h-20.99v-14.58c0-1.49-1.2-2.69-2.69-2.69s-2.69,1.2-2.69,2.69v34.54c0,1.49,1.2,2.69,2.69,2.69s2.69-1.2,2.69-2.69v-14.58h20.99v14.58c0,1.49,1.2,2.69,2.69,2.69s2.69-1.2,2.69-2.69v-34.54c0-1.49-1.2-2.69-2.69-2.69Z"/>
        </g>
      </g>
    </g>
  </g>
</svg>